<svg xmlns="http://www.w3.org/2000/svg" viewBox="0 0 48 48" width="48" height="48">
  <!-- Background circle -->
  <circle cx="24" cy="24" r="22" fill="#4F46E5" opacity="0.1"/>

  <!-- PDF Document Icon -->
  <g transform="translate(12, 8)">
    <!-- Document background -->
    <path d="M4 0 h14 l6 6 v26 a2 2 0 0 1 -2 2 h-18 a2 2 0 0 1 -2 -2 v-30 a2 2 0 0 1 2 -2 z"
          fill="#4F46E5" opacity="0.9"/>

    <!-- Folded corner -->
    <path d="M18 0 v4 a2 2 0 0 0 2 2 h4 z" fill="#6366F1" opacity="0.7"/>

    <!-- PDF text -->
    <text x="12" y="20" font-family="Arial, sans-serif" font-size="7" font-weight="bold"
          fill="white" text-anchor="middle">PDF</text>

    <!-- Lines representing text -->
    <line x1="6" y1="24" x2="18" y2="24" stroke="white" stroke-width="1.5" opacity="0.6"/>
    <line x1="6" y1="27" x2="18" y2="27" stroke="white" stroke-width="1.5" opacity="0.6"/>
    <line x1="6" y1="30" x2="14" y2="30" stroke="white" stroke-width="1.5" opacity="0.6"/>
  </g>
</svg>
